REM DIRINDEX 1\2,1\3,1\4
REM DIRNAME cjc077,folder01,folder02,folder03
TITLE ""
FILE "CD2Track08.mp3" MP3
  TRACK 01 AUDIO
    TITLE "0:"
    INDEX 01 00:00:00
  TRACK 02 AUDIO
    TITLE "2:cjc077_0545"
    INDEX 01 00:00:09
  TRACK 03 AUDIO
    TITLE "2:cjc077_0546"
    INDEX 01 00:09:22
  TRACK 04 AUDIO
    TITLE "0:"
    INDEX 01 00:17:18
